<svg width="51" height="24" viewBox="0 0 51 24" fill="none" xmlns="http://www.w3.org/2000/svg">
<g id="Group 4">
<g id="Vector">
<path d="M7.39479e-07 9.75325C-0.000835142 7.60637 0.706989 5.51923 2.01363 3.81576C3.32026 2.11228 5.15264 0.887726 7.22639 0.332132C9.30015 -0.223461 11.4993 -0.079023 13.4826 0.743031C15.4658 1.56509 17.1223 3.01878 18.1949 4.87853L34.1231 4.87853C34.2832 4.87824 34.4419 4.90952 34.5899 4.97058C34.738 5.03164 34.8725 5.12128 34.9859 5.23438L38.642 8.89043C38.7555 9.00363 38.8455 9.13812 38.9069 9.28617C38.9684 9.43423 39 9.59296 39 9.75325C39 9.91355 38.9684 10.0723 38.9069 10.2203C38.8455 10.3684 38.7555 10.5029 38.642 10.6161L34.9859 14.2721C34.8727 14.3856 34.7382 14.4757 34.5902 14.5371C34.4421 14.5985 34.2834 14.6302 34.1231 14.6302C33.9628 14.6302 33.8041 14.5985 33.656 14.5371C33.508 14.4757 33.3735 14.3856 33.2603 14.2721L31.6857 12.6952L30.1112 14.2721C29.998 14.3856 29.8635 14.4757 29.7154 14.5371C29.5674 14.5985 29.4087 14.6302 29.2484 14.6302C29.0881 14.6302 28.9293 14.5985 28.7813 14.5371C28.6332 14.4757 28.4987 14.3856 28.3855 14.2721L26.811 12.6952L25.2365 14.2721C25.1233 14.3856 24.9888 14.4757 24.8407 14.5371C24.6927 14.5985 24.5339 14.6302 24.3736 14.6302C24.2133 14.6302 24.0546 14.5985 23.9066 14.5371C23.7585 14.4757 23.624 14.3856 23.5108 14.2721L21.9363 12.6952L20.3617 14.2721C20.2484 14.3852 20.1138 14.4749 19.9657 14.5359C19.8177 14.597 19.6591 14.6283 19.4989 14.628H18.1949C17.1223 16.4877 15.4658 17.9414 13.4826 18.7635C11.4993 19.5855 9.30015 19.73 7.22639 19.1744C5.15264 18.6188 3.32026 17.3942 2.01363 15.6908C0.706989 13.9873 -0.000835142 11.9001 7.39479e-07 9.75325ZM9.74946 2.44116C8.44094 2.44166 7.15652 2.79328 6.03021 3.45935C4.90389 4.12542 3.97695 5.08152 3.34608 6.22793C2.71521 7.37433 2.40353 8.66901 2.44356 9.97692C2.48359 11.2848 2.87385 12.558 3.57364 13.6637C4.27343 14.7694 5.2571 15.667 6.42204 16.263C7.58697 16.8589 8.89049 17.1314 10.1966 17.0518C11.5027 16.9723 12.7635 16.5438 13.8476 15.8109C14.9316 15.078 15.7991 14.0677 16.3596 12.8853C16.4585 12.6775 16.6143 12.502 16.8088 12.3791C17.0034 12.2562 17.2287 12.1908 17.4588 12.1906H18.9944L21.0734 10.1091C21.1867 9.99562 21.3211 9.90558 21.4692 9.84414C21.6173 9.7827 21.776 9.75108 21.9363 9.75108C22.0966 9.75108 22.2553 9.7827 22.4034 9.84414C22.5514 9.90558 22.6859 9.99562 22.7991 10.1091L24.3736 11.6861L25.9482 10.1091C26.0614 9.99562 26.1959 9.90558 26.3439 9.84414C26.492 9.7827 26.6507 9.75108 26.811 9.75108C26.9713 9.75108 27.13 9.7827 27.2781 9.84414C27.4261 9.90558 27.5606 9.99562 27.6738 10.1091L29.2484 11.6861L30.8229 10.1091C30.9361 9.99562 31.0706 9.90558 31.2186 9.84414C31.3667 9.7827 31.5254 9.75108 31.6857 9.75108C31.846 9.75108 32.0047 9.7827 32.1528 9.84414C32.3009 9.90558 32.4354 9.99562 32.5486 10.1091L34.1231 11.6861L36.0559 9.75325L33.6186 7.31589L17.4588 7.31589C17.2287 7.3157 17.0034 7.25036 16.8088 7.12743C16.6143 7.0045 16.4585 6.829 16.3596 6.62124C15.7666 5.37017 14.8305 4.31317 13.6603 3.57318C12.4902 2.8332 11.134 2.44064 9.74946 2.44116Z" fill="white"/>
<path d="M9.74946 9.75325C9.74946 10.3997 9.49266 11.0196 9.03557 11.4767C8.57847 11.9338 7.95852 12.1906 7.31209 12.1906C6.66566 12.1906 6.04571 11.9338 5.58862 11.4767C5.13152 11.0196 4.87473 10.3997 4.87473 9.75325C4.87473 9.10682 5.13152 8.48687 5.58862 8.02978C6.04571 7.57268 6.66566 7.31589 7.31209 7.31589C7.95852 7.31589 8.57847 7.57268 9.03557 8.02978C9.49266 8.48687 9.74946 9.10682 9.74946 9.75325Z" fill="white"/>
</g>
<g id="Group 2">
<rect id="Rectangle 6" x="39" y="12" width="12" height="12" rx="4" fill="white"/>
<rect id="Rectangle 7" x="44" y="14" width="2" height="8" rx="1" fill="#4698F0"/>
<rect id="Rectangle 8" x="41" y="19" width="2" height="8" rx="1" transform="rotate(-90 41 19)" fill="#4698F0"/>
</g>
</g>
</svg>
