<svg width="51" height="47" viewBox="0 0 51 47" fill="none" xmlns="http://www.w3.org/2000/svg">
<g id="Group 43">
<rect id="Rectangle 29" x="0.5" y="0.5" width="50" height="46" rx="9.5" stroke="#DFDFDF"/>
<path id="Vector" d="M27.6562 30.25H31.4062C31.8403 30.25 32.2092 30.0981 32.513 29.7943C32.8168 29.4904 32.9688 29.1215 32.9688 28.6875V22.2812H34.2188V20.7188H30.7812V19.625H28.2812V20.7188H24.8438V22.2812H26.0938V28.6875C26.0938 29.1215 26.2457 29.4904 26.5495 29.7943C26.8533 30.0981 27.2222 30.25 27.6562 30.25ZM27.6562 28.6875V22.2812H31.4062V28.6875H27.6562ZM14.875 34C14.375 34 13.9375 33.8073 13.5625 33.4219C13.1875 33.0365 13 32.6042 13 32.125V15.875C13 15.3958 13.1875 14.9635 13.5625 14.5781C13.9375 14.1927 14.375 14 14.875 14H23.625L25.5 15.875H36.125C36.6042 15.875 37.0365 16.0677 37.4219 16.4531C37.8073 16.8385 38 17.2708 38 17.75V32.125C38 32.6042 37.8073 33.0365 37.4219 33.4219C37.0365 33.8073 36.6042 34 36.125 34H14.875ZM14.875 32.125H36.125V17.75H24.6875L22.8125 15.875H14.875V32.125Z" fill="black"/>
</g>
</svg>
