<svg width="10" height="12" viewBox="0 0 10 12" fill="none" xmlns="http://www.w3.org/2000/svg">
<path d="M5.39995 7.20001C5.39995 6.86863 5.13133 6.60001 4.79995 6.60001C4.46857 6.60001 4.19995 6.86863 4.19995 7.20001V8.40001C4.19995 8.73139 4.46857 9.00001 4.79995 9.00001C5.13133 9.00001 5.39995 8.73139 5.39995 8.40001V7.20001Z" fill="#4698F0"/>
<path fill-rule="evenodd" clip-rule="evenodd" d="M1.8 3.67222C0.78966 3.9193 0 4.77587 0 5.86152V9.18462C0 10.7838 1.38927 12 3 12H6.6C8.21076 12 9.6 10.7838 9.6 9.18462V5.86152C9.6 4.77587 8.81034 3.9193 7.8 3.67222V3C7.8 1.34315 6.45684 0 4.8 0C3.14315 0 1.8 1.34315 1.8 3V3.67222ZM6.6 3V3.6H3V3C3 2.78962 3.03609 2.58767 3.10243 2.4C3.34952 1.70089 4.01628 1.2 4.8 1.2C5.58372 1.2 6.2505 1.70089 6.49758 2.4C6.56388 2.58767 6.6 2.78962 6.6 3ZM1.2 5.86152C1.2 5.3196 1.69114 4.8 2.4 4.8H7.2C7.90884 4.8 8.4 5.3196 8.4 5.86152V9.18462C8.4 10.0325 7.64022 10.8 6.6 10.8H3C1.95976 10.8 1.2 10.0325 1.2 9.18462V5.86152Z" fill="#4698F0"/>
</svg>
