<svg width="51" height="47" viewBox="0 0 51 47" fill="none" xmlns="http://www.w3.org/2000/svg">
<g id="Group 42">
<rect id="Rectangle 30" x="0.5" y="0.5" width="50" height="46" rx="9.5" stroke="#DFDFDF"/>
<path id="Vector" d="M14.875 34C14.3958 34 13.9635 33.8073 13.5781 33.4219C13.1927 33.0365 13 32.6042 13 32.125V15.875C13 15.3958 13.1927 14.9635 13.5781 14.5781C13.9635 14.1927 14.3958 14 14.875 14H23.625L25.5 15.875H36.125C36.6042 15.875 37.0365 16.0677 37.4219 16.4531C37.8073 16.8385 38 17.2708 38 17.75V32.125C38 32.6042 37.8073 33.0365 37.4219 33.4219C37.0365 33.8073 36.6042 34 36.125 34H14.875ZM30.5 32.125H36.125V17.75H30.5V20.625H33.375V23.5H30.5V26.375H33.375V29.25H30.5V32.125ZM14.875 32.125H27.625V29.25H30.5V26.375H27.625V23.5H30.5V20.625H27.625V17.75H24.7188L22.8438 15.875H14.875V32.125ZM14.875 17.75V15.875V32.125V17.75Z" fill="black"/>
</g>
</svg>
