<svg width="51" height="47" viewBox="0 0 51 47" fill="none" xmlns="http://www.w3.org/2000/svg">
<g id="Group 46">
<rect id="Rectangle 26" x="0.5" y="0.5" width="50" height="46" rx="9.5" stroke="#DFDFDF"/>
<g id="Group 23">
<path id="Vector" d="M14.875 34C14.375 34 13.9375 33.8073 13.5625 33.4219C13.1875 33.0365 13 32.6042 13 32.125V15.875C13 15.3958 13.1875 14.9635 13.5625 14.5781C13.9375 14.1927 14.375 14 14.875 14H23.625L25.5 15.875H36.125C36.6042 15.875 37.0365 16.0677 37.4219 16.4531C37.8073 16.8385 38 17.2708 38 17.75V32.125C38 32.6042 37.8073 33.0365 37.4219 33.4219C37.0365 33.8073 36.6042 34 36.125 34H14.875ZM14.875 15.875V32.125H36.125V17.75H24.7188L22.8438 15.875H14.875Z" fill="black"/>
<path id="Vector_2" d="M28.6582 30.6875L28.5178 29.3398C28.0872 29.2088 27.6942 29.0356 27.3385 28.8204C26.9829 28.6051 26.674 28.3758 26.412 28.1325L25.2327 28.694L24.25 27.1778L25.3169 26.3355C25.2234 25.9799 25.1766 25.5914 25.1766 25.1703C25.1766 24.7491 25.2234 24.3607 25.3169 24.0051L24.25 23.1628L25.2327 21.6185L26.412 22.18C26.674 21.9554 26.9829 21.7355 27.3385 21.5202C27.6942 21.305 28.0872 21.1318 28.5178 21.0008L28.6582 19.625H30.3428L30.5113 21.0008C30.9418 21.1318 31.3349 21.305 31.6905 21.5202C32.0462 21.7355 32.355 21.9554 32.6171 22.18L33.7963 21.6185L34.779 23.1628L33.7121 24.0051C33.8057 24.3607 33.8525 24.7491 33.8525 25.1703C33.8525 25.5914 33.8057 25.9799 33.7121 26.3355L34.779 27.1778L33.7963 28.694L32.6171 28.1325C32.355 28.3758 32.0462 28.6051 31.6905 28.8204C31.3349 29.0356 30.9418 29.2088 30.5113 29.3398L30.3428 30.6875H28.6582ZM29.5005 28.0201C30.3241 28.0201 31.0073 27.7487 31.5501 27.2059C32.093 26.6631 32.3644 25.9799 32.3644 25.1562C32.3644 24.3326 32.093 23.6494 31.5501 23.1066C31.0073 22.5638 30.3241 22.2924 29.5005 22.2924C28.6769 22.2924 27.9937 22.5638 27.4508 23.1066C26.908 23.6494 26.6366 24.3326 26.6366 25.1562C26.6366 25.9799 26.908 26.6631 27.4508 27.2059C27.9937 27.7487 28.6769 28.0201 29.5005 28.0201Z" fill="black"/>
</g>
</g>
</svg>
