<svg width="51" height="47" viewBox="0 0 51 47" fill="none" xmlns="http://www.w3.org/2000/svg">
<g id="Group 44">
<rect id="Rectangle 28" x="0.5" y="0.5" width="50" height="46" rx="9.5" stroke="#DFDFDF"/>
<path id="Vector" d="M28 28.375V21.5H30.3438L32.375 23.5312V28.375H28ZM26.125 30.25H34.25V22.75L31.125 19.625H26.125V30.25ZM14.875 34C14.375 34 13.9375 33.8073 13.5625 33.4219C13.1875 33.0365 13 32.6042 13 32.125V15.875C13 15.3958 13.1875 14.9635 13.5625 14.5781C13.9375 14.1927 14.375 14 14.875 14H23.625L25.5 15.875H36.125C36.6042 15.875 37.0365 16.0677 37.4219 16.4531C37.8073 16.8385 38 17.2708 38 17.75V32.125C38 32.6042 37.8073 33.0365 37.4219 33.4219C37.0365 33.8073 36.6042 34 36.125 34H14.875ZM14.875 15.875V32.125H36.125V17.75H24.7188L22.8438 15.875H14.875Z" fill="black"/>
</g>
</svg>
