<svg width="51" height="47" viewBox="0 0 51 47" fill="none" xmlns="http://www.w3.org/2000/svg">
<g id="Group 45">
<path id="Vector" d="M29.185 24.8125C29.8117 24.8125 30.349 24.5894 30.7969 24.1431C31.2448 23.6969 31.4688 23.1604 31.4688 22.5338C31.4688 21.9071 31.2456 21.3698 30.7994 20.9219C30.3531 20.474 29.8166 20.25 29.19 20.25C28.5633 20.25 28.026 20.4731 27.5781 20.9194C27.1302 21.3656 26.9062 21.9021 26.9062 22.5287C26.9062 23.1554 27.1294 23.6927 27.5756 24.1406C28.0219 24.5885 28.5584 24.8125 29.185 24.8125ZM24.1875 30.25H34.1875V29.6562C34.1875 28.7812 33.7448 28.1042 32.8594 27.625C31.974 27.1458 30.75 26.9062 29.1875 26.9062C27.625 26.9062 26.401 27.1458 25.5156 27.625C24.6302 28.1042 24.1875 28.7812 24.1875 29.6562V30.25ZM14.875 34C14.375 34 13.9375 33.8073 13.5625 33.4219C13.1875 33.0365 13 32.6042 13 32.125V15.875C13 15.3958 13.1875 14.9635 13.5625 14.5781C13.9375 14.1927 14.375 14 14.875 14H23.625L25.5 15.875H36.125C36.6042 15.875 37.0365 16.0677 37.4219 16.4531C37.8073 16.8385 38 17.2708 38 17.75V32.125C38 32.6042 37.8073 33.0365 37.4219 33.4219C37.0365 33.8073 36.6042 34 36.125 34H14.875ZM14.875 15.875V32.125H36.125V17.75H24.7188L22.8438 15.875H14.875Z" fill="black"/>
<rect id="Rectangle 27" x="0.5" y="0.5" width="50" height="46" rx="9.5" stroke="#DFDFDF"/>
</g>
</svg>
