<svg width="51" height="28" viewBox="0 0 51 28" fill="none" xmlns="http://www.w3.org/2000/svg">
<g id="Group 3">
<path id="Vector" d="M38.0123 1.6C37.1279 0.533334 35.8353 0 34.4067 0H22.4336C21.6173 0 21.005 0.599999 21.005 1.4C21.005 2.2 21.6173 2.8 22.4336 2.8H34.3387C34.951 2.8 35.4272 3 35.7673 3.4C36.1075 3.8 36.2435 4.46667 36.1075 5.06667L33.4543 16.0667L32.5699 9.6C32.2298 7.06667 29.9168 5.06667 27.2637 5.06667H19.0321C18.692 4.4 18.2158 3.46667 17.9437 3C17.4675 2 16.447 0 13.3177 0H9.30397C6.17463 0 5.08617 2 4.60996 3C4.40587 3.46667 3.86164 4.46667 3.5215 5.13333C2.56909 5.33333 1.75274 5.8 1.07245 6.46667C0.256096 7.46667 -0.152079 8.66667 0.0520084 10L1.8888 23.4667C2.22894 26 4.60996 28 7.19507 28H30.0529C31.3454 28 32.5699 27.4667 33.3863 26.5333C33.9305 25.9333 34.2707 25.1333 34.4067 24.3333L38.8286 5.66667C39.2368 4.13333 38.8967 2.66667 38.0123 1.6ZM30.1209 25.2H7.19507C6.03857 25.2 4.88208 24.2 4.74602 23.0667L2.90923 9.6C2.8412 9.13333 2.97726 8.66667 3.24938 8.33333C3.5215 8 3.92967 7.86667 4.4739 7.86667C5.01814 7.86667 5.49434 7.6 5.76646 7.13333C5.76646 7.13333 6.85492 5 7.2631 4.33333C7.67127 3.46667 8.01142 2.86667 9.44003 2.86667H13.4538C14.8143 2.86667 15.1545 3.46667 15.6307 4.33333C15.9708 5.06667 17.1273 7.13333 17.1273 7.13333C17.3994 7.6 17.8756 7.86667 18.4199 7.86667H27.5358C28.6923 7.86667 29.8488 8.86667 29.9848 10L31.8216 23.4667C31.8897 23.9333 31.7536 24.4 31.4815 24.7333C31.0053 25.0667 30.5971 25.2 30.1209 25.2Z" fill="white"/>
<g id="Group 1">
<rect id="Rectangle 6" x="39" y="16" width="12" height="12" rx="4" fill="white"/>
<rect id="Rectangle 7" x="44" y="18" width="2" height="8" rx="1" fill="#4698F0"/>
<rect id="Rectangle 8" x="41" y="23" width="2" height="8" rx="1" transform="rotate(-90 41 23)" fill="#4698F0"/>
</g>
</g>
</svg>
