<svg width="15" height="14" viewBox="0 0 15 14" fill="none" xmlns="http://www.w3.org/2000/svg">
<path id="Vector" d="M8.23033 5.96467C8.23033 5.65845 7.97492 5.4156 7.66667 5.4156C7.35841 5.4156 7.103 5.65845 7.103 5.96467V8.35967C7.103 8.66589 7.35841 8.90873 7.66667 8.90873C7.97492 8.90873 8.23033 8.66589 8.23033 8.35967V5.96467ZM7.66667 10.8547C8.06025 10.8547 8.38487 10.5448 8.38487 10.1559C8.38487 9.76705 8.06025 9.4572 7.66667 9.4572C7.27308 9.4572 6.94847 9.76705 6.94847 10.1559C6.94847 10.5448 7.27308 10.8547 7.66667 10.8547ZM9.12299 1.64853C8.41915 0.65049 6.91418 0.650492 6.21032 1.64853C5.38678 2.81624 4.21915 4.51759 3.43709 5.85327C2.6161 7.2554 1.68255 9.17241 1.06234 10.4915C0.542046 11.5981 1.32969 12.8448 2.56833 12.916C4.01358 12.999 6.09227 13.1 7.66667 13.1C9.24103 13.1 11.3198 12.999 12.765 12.916C14.0036 12.8448 14.7913 11.5981 14.271 10.4915C13.6508 9.1724 12.7172 7.2554 11.8962 5.85327C11.1142 4.51759 9.94657 2.81624 9.12299 1.64853ZM7.13945 2.27039C7.39548 1.90737 7.93785 1.90737 8.19388 2.27039C9.01616 3.43628 10.1603 5.10493 10.917 6.39733C11.7112 7.75373 12.6271 9.63226 13.2461 10.9488C13.4311 11.3422 13.1584 11.7933 12.6986 11.8198C11.2553 11.9027 9.20517 12.0019 7.66667 12.0019C6.12814 12.0019 4.07806 11.9027 2.63472 11.8198C2.17494 11.7933 1.90226 11.3422 2.08722 10.9488C2.70622 9.63226 3.62208 7.75373 4.41627 6.39733C5.17302 5.10493 6.31719 3.43628 7.13945 2.27039Z" fill="#AE4545" stroke="#AE4545" stroke-width="0.2"/>
</svg>
