<svg width="15" height="16" viewBox="0 0 15 16" fill="none" xmlns="http://www.w3.org/2000/svg">
<path id="Vector" fill-rule="evenodd" clip-rule="evenodd" d="M3.70911 2.90909H0.727273C0.325615 2.90909 0 3.23471 0 3.63636C0 4.03802 0.325615 4.36364 0.727273 4.36364H1.49858L2.09799 13.9543C2.16986 15.1041 3.12343 16 4.27556 16H10.2699C11.422 16 12.3756 15.1041 12.4475 13.9543L13.0469 4.36364H13.8182C14.2199 4.36364 14.5455 4.03802 14.5455 3.63636C14.5455 3.23471 14.2199 2.90909 13.8182 2.90909H12.3689C12.3649 2.90905 12.3609 2.90905 12.3569 2.90909H10.8364C10.4994 1.24928 9.032 0 7.27273 0C5.51348 0 4.04603 1.24928 3.70911 2.90909ZM5.21506 2.90909H9.3304C9.03091 2.06168 8.22269 1.45455 7.27273 1.45455C6.32276 1.45455 5.51457 2.06168 5.21506 2.90909ZM11.5895 4.36364H2.95596L3.54971 13.8636C3.57367 14.2468 3.89152 14.5455 4.27556 14.5455H10.2699C10.654 14.5455 10.9718 14.2468 10.9958 13.8636L11.5895 4.36364ZM8.93018 6.55251C9.33091 6.58058 9.63302 6.92807 9.60495 7.3288L9.30058 11.6817C9.27258 12.0825 8.92502 12.3846 8.52436 12.3566C8.12364 12.3285 7.82153 11.981 7.8496 11.5803L8.15396 7.22735C8.18196 6.82662 8.52953 6.52452 8.93018 6.55251ZM5.61527 6.55258C6.01593 6.52455 6.36349 6.82662 6.39149 7.22735L6.69593 11.5804C6.72393 11.981 6.42182 12.3286 6.02116 12.3566C5.62044 12.3846 5.27292 12.0825 5.24489 11.6818L4.9405 7.3288C4.91249 6.92815 5.21459 6.58058 5.61527 6.55258Z" fill="#4698F0"/>
</svg>
