<svg width="14" height="14" viewBox="0 0 14 14" fill="none" xmlns="http://www.w3.org/2000/svg">
<path id="Vector" d="M13 1.7C13.3866 1.7 13.7 1.3866 13.7 1C13.7 0.613401 13.3866 0.3 13 0.3V1.7ZM8.3 5C8.3 5.3866 8.6134 5.7 9 5.7C9.3866 5.7 9.7 5.3866 9.7 5H8.3ZM9.59147 0.682667C9.23211 0.540103 8.82523 0.715846 8.68267 1.0752C8.5401 1.43455 8.71585 1.84144 9.0752 1.984L9.59147 0.682667ZM4.34523 2.27561C4.68154 2.08494 4.79961 1.65774 4.60895 1.32143C4.41828 0.985123 3.99108 0.867055 3.65477 1.05772L4.34523 2.27561ZM13 0.3H9.4V1.7H13V0.3ZM9.4 0.3C8.79244 0.3 8.3 0.79251 8.3 1.4H9.7C9.7 1.56566 9.56569 1.7 9.4 1.7V0.3ZM8.3 1.4V5H9.7V1.4H8.3ZM9.0752 1.984C10.981 2.74008 12.3 4.78973 12.3 7H13.7C13.7 4.27461 12.0834 1.67126 9.59147 0.682667L9.0752 1.984ZM12.3 7C12.3 9.86608 9.92214 12.3 7 12.3V13.7C10.7053 13.7 13.7 10.6293 13.7 7H12.3ZM7 12.3C4.07788 12.3 1.7 9.86608 1.7 7H0.3C0.3 10.6293 3.2947 13.7 7 13.7V12.3ZM1.7 7C1.7 5.05924 2.78486 3.16024 4.34523 2.27561L3.65477 1.05772C1.62833 2.20658 0.3 4.58762 0.3 7H1.7Z" fill="#4698F0"/>
</svg>
