<svg width="19" height="14" viewBox="0 0 19 14" fill="none" xmlns="http://www.w3.org/2000/svg">
<g id="Vector">
<path d="M9.07407 14C3.02815 14 0.186667 7.58074 0.0622222 7.31111C0.0211451 7.21249 0 7.10681 0 7C0 6.89319 0.0211451 6.78751 0.0622222 6.68889C0.186667 6.41926 3.02815 0 9.07407 0C15.12 0 17.9615 6.41926 18.0859 6.68889C18.127 6.78751 18.1481 6.89319 18.1481 7C18.1481 7.10681 18.127 7.21249 18.0859 7.31111C17.9615 7.58074 15.12 14 9.07407 14ZM1.63852 7C2.25037 8.19259 4.74963 12.4444 9.07407 12.4444C13.3985 12.4444 15.8978 8.19259 16.5096 7C15.8978 5.80741 13.3985 1.55556 9.07407 1.55556C4.74963 1.55556 2.25037 5.80741 1.63852 7Z" fill="black" fill-opacity="0.3"/>
<path d="M9.07407 10.3704C8.40747 10.3704 7.7559 10.1727 7.2016 9.80239C6.64735 9.43206 6.21536 8.90566 5.96026 8.28976C5.70517 7.67397 5.63842 6.99627 5.76847 6.34252C5.89851 5.68867 6.21951 5.08812 6.69086 4.61679C7.16219 4.14543 7.76274 3.82444 8.41659 3.69439C9.07034 3.56435 9.74804 3.63109 10.3638 3.88618C10.9797 4.14128 11.5061 4.57327 11.8765 5.12753C12.2468 5.68182 12.4444 6.33339 12.4444 7C12.4417 7.89299 12.0857 8.74876 11.4543 9.38021C10.8228 10.0117 9.96707 10.3677 9.07407 10.3704ZM9.07407 5.18519C8.71516 5.18519 8.36422 5.29159 8.06587 5.49101C7.76741 5.69043 7.5348 5.97385 7.39739 6.3055C7.26009 6.63714 7.2241 7.00197 7.2941 7.35405C7.36421 7.70612 7.53698 8.02947 7.79084 8.28323C8.04461 8.5371 8.36796 8.70997 8.72003 8.77997C9.0721 8.84997 9.43693 8.81399 9.76858 8.67668C10.1002 8.53928 10.3836 8.30667 10.5831 8.00821C10.7825 7.70985 10.8889 7.35892 10.8889 7C10.8862 6.51954 10.6941 6.05951 10.3543 5.71978C10.0146 5.37994 9.55453 5.18788 9.07407 5.18519Z" fill="black" fill-opacity="0.3"/>
</g>
</svg>
