<svg width="31" height="28" viewBox="0 0 31 28" fill="none" xmlns="http://www.w3.org/2000/svg">
<path id="Vector" d="M3.20335 28C0.892348 28 -0.55083 25.4969 0.607063 23.4969L12.7721 2.48448C13.9276 0.488625 16.8092 0.488627 17.9647 2.48448L30.1298 23.4969C31.2877 25.4969 29.8445 28 27.5335 28H3.20335ZM2.10526 25.6316H28.6316L15.3684 2.73684L2.10526 25.6316ZM15.5332 23.3816C15.8707 23.3816 16.1513 23.2674 16.375 23.0391C16.5987 22.8108 16.7105 22.5279 16.7105 22.1905C16.7105 21.853 16.5964 21.5724 16.3681 21.3487C16.1398 21.125 15.8569 21.0132 15.5194 21.0132C15.1819 21.0132 14.9013 21.1273 14.6776 21.3556C14.4539 21.5839 14.3421 21.8668 14.3421 22.2043C14.3421 22.5418 14.4562 22.8224 14.6845 23.0461C14.9129 23.2697 15.1958 23.3816 15.5332 23.3816ZM14.3421 19H16.7105V10.1579H14.3421V19Z" fill="#AF6A42"/>
</svg>
