<svg width="28" height="28" viewBox="0 0 28 28" fill="none" xmlns="http://www.w3.org/2000/svg">
<path id="Vector" d="M27.5794 25.5212L20.4444 18.3862C23.9433 13.9269 23.6003 7.40938 19.4839 3.36166C17.3572 1.2349 14.4757 0 11.3885 0C8.30125 0 5.48843 1.16629 3.36166 3.36166C1.16629 5.48843 0 8.36985 0 11.3885C0 14.4071 1.16629 17.2886 3.36166 19.4839C5.48843 21.6107 8.36986 22.8456 11.4571 22.8456C13.9955 22.8456 16.4653 22.0223 18.4548 20.4444L25.5898 27.5794C25.8642 27.8538 26.2073 27.991 26.6189 27.991C27.0305 27.991 27.3735 27.8538 27.648 27.5794C28.1282 27.0305 28.1282 26.07 27.5794 25.5212ZM5.35122 17.4258C3.7733 15.8478 2.88143 13.6525 2.88143 11.3885C2.88143 9.12451 3.7733 6.99775 5.35122 5.35122C6.99775 3.7733 9.12452 2.88143 11.3885 2.88143C13.6525 2.88143 15.7792 3.7733 17.4258 5.35122C20.7188 8.71288 20.7188 14.0641 17.4258 17.4258C15.8478 19.0037 13.6525 19.8956 11.3885 19.8956C9.12452 19.9642 6.99775 19.0723 5.35122 17.4258Z" fill="white"/>
</svg>
