<svg width="30" height="30" viewBox="0 0 30 30" fill="none" xmlns="http://www.w3.org/2000/svg">
<path id="Vector" d="M14.9993 22.5C15.3498 22.5 15.6438 22.3815 15.8813 22.1444C16.1188 21.9074 16.2375 21.6136 16.2375 21.2632C16.2375 20.9127 16.119 20.6188 15.8819 20.3813C15.6449 20.1438 15.3511 20.025 15.0007 20.025C14.6502 20.025 14.3563 20.1435 14.1188 20.3806C13.8813 20.6177 13.7625 20.9114 13.7625 21.2618C13.7625 21.6123 13.881 21.9062 14.1181 22.1438C14.3552 22.3813 14.6489 22.5 14.9993 22.5ZM13.9875 16.7625H16.2375V7.275H13.9875V16.7625ZM15.01 30C12.9416 30 10.9979 29.6063 9.17873 28.8188C7.35957 28.0313 5.76875 26.9563 4.40625 25.5938C3.04375 24.2313 1.96875 22.6395 1.18125 20.8185C0.39375 18.9975 0 17.0517 0 14.9813C0 12.9108 0.39375 10.965 1.18125 9.14404C1.96875 7.32301 3.04375 5.7375 4.40625 4.3875C5.76875 3.0375 7.36051 1.96875 9.18154 1.18125C11.0025 0.39375 12.9483 0 15.0188 0C17.0892 0 19.035 0.39375 20.856 1.18125C22.677 1.96875 24.2625 3.0375 25.6125 4.3875C26.9625 5.7375 28.0313 7.325 28.8188 9.15C29.6063 10.975 30 12.9217 30 14.99C30 17.0584 29.6063 19.0021 28.8188 20.8213C28.0313 22.6404 26.9625 24.229 25.6125 25.5869C24.2625 26.9447 22.675 28.0198 20.85 28.8118C19.025 29.604 17.0783 30 15.01 30ZM15.0188 27.75C18.5563 27.75 21.5625 26.5063 24.0375 24.0188C26.5125 21.5312 27.75 18.5188 27.75 14.9813C27.75 11.4438 26.5149 8.4375 24.0445 5.9625C21.5742 3.4875 18.5594 2.25 15 2.25C11.475 2.25 8.46875 3.48515 5.98125 5.95545C3.49375 8.42578 2.25 11.4406 2.25 15C2.25 18.525 3.49375 21.5312 5.98125 24.0188C8.46875 26.5063 11.4813 27.75 15.0188 27.75Z" fill="#AE4545"/>
</svg>
