<svg width="28" height="31" viewBox="0 0 28 31" fill="none" xmlns="http://www.w3.org/2000/svg">
<path id="Vector" fill-rule="evenodd" clip-rule="evenodd" d="M14 0C11.5925 0 9.57018 1.81016 9.30433 4.20283L9.15916 5.50924C9.13474 5.72909 8.97645 5.99407 8.65362 6.18095C8.33537 6.36518 8.03188 6.37024 7.82548 6.27982L6.62096 5.75207C4.41592 4.78597 1.83707 5.63236 0.633366 7.71724C-0.570333 9.80211 -0.0139165 12.4587 1.92529 13.8852L2.98533 14.6651C3.16589 14.7979 3.31461 15.0655 3.31461 15.4345C3.31461 15.8035 3.16589 16.071 2.98533 16.2038L1.92529 16.9838C-0.0139165 18.4102 -0.570333 21.0669 0.633366 23.1517C1.83707 25.2366 4.41592 26.083 6.62096 25.1169L7.82548 24.5891C8.03188 24.4987 8.33537 24.5038 8.65362 24.688C8.97645 24.8748 9.13474 25.1398 9.15916 25.3597L9.30433 26.6662C9.57018 29.0588 11.5925 30.8689 14 30.8689C16.4075 30.8689 18.4298 29.0588 18.6957 26.6662L18.8409 25.3597C18.8653 25.1398 19.0236 24.8748 19.3463 24.688C19.6647 24.5038 19.9682 24.4987 20.1746 24.5891L21.3791 25.1169C23.5841 26.083 26.163 25.2366 27.3667 23.1517C28.5703 21.0669 28.0139 18.4102 26.0747 16.9838L25.0147 16.2038C24.8342 16.071 24.6854 15.8035 24.6854 15.4345C24.6854 15.0655 24.8342 14.7979 25.0147 14.6651L26.0747 13.8852C28.0139 12.4587 28.5703 9.80211 27.3667 7.71724C26.163 5.63236 23.5841 4.78597 21.3791 5.75207L20.1746 6.27981C19.9682 6.37024 19.6647 6.36518 19.3463 6.18095C19.0236 5.99407 18.8653 5.72909 18.8409 5.50922L18.6957 4.20283C18.4298 1.81016 16.4075 0 14 0ZM11.6644 4.46506C11.7966 3.27493 12.8026 2.37453 14 2.37453C15.1974 2.37453 16.2034 3.27493 16.3358 4.46506L16.4809 5.77145C16.6045 6.88534 17.3182 7.75056 18.1567 8.23599C19.0012 8.72485 20.1032 8.90349 21.1274 8.45475L22.3319 7.92702C23.4288 7.44646 24.7115 7.86747 25.3102 8.9045C25.9089 9.94154 25.6322 11.2629 24.6677 11.9725L23.6077 12.7524C22.7068 13.415 22.3109 14.4611 22.3109 15.4345C22.3109 16.4079 22.7068 17.4539 23.6077 18.1166L24.6677 18.8964C25.6322 19.6061 25.9089 20.9274 25.3102 21.9644C24.7115 23.0015 23.4288 23.4224 22.3319 22.942L21.1274 22.4142C20.1032 21.9654 19.0012 22.1441 18.1567 22.633C17.3182 23.1185 16.6045 23.9836 16.4809 25.0976L16.3358 26.4039C16.2034 27.594 15.1974 28.4944 14 28.4944C12.8026 28.4944 11.7966 27.594 11.6644 26.4039L11.5192 25.0976C11.3955 23.9836 10.6818 23.1185 9.84325 22.633C8.99876 22.1441 7.89677 21.9654 6.87257 22.4142L5.66806 22.942C4.57125 23.4224 3.28851 23.0015 2.68978 21.9644C2.09103 20.9274 2.36781 19.6061 3.33239 18.8964L4.39243 18.1166C5.2932 17.4539 5.68915 16.4079 5.68915 15.4345C5.68915 14.4611 5.2932 13.415 4.39243 12.7524L3.33239 11.9725C2.36781 11.2629 2.09103 9.94154 2.68978 8.9045C3.28851 7.86747 4.57125 7.44646 5.66806 7.92702L6.87257 8.45475C7.89677 8.90349 8.99876 8.72485 9.84325 8.23599C10.6818 7.75056 11.3955 6.88534 11.5192 5.77146L11.6644 4.46506ZM12.0212 15.4345C12.0212 14.3416 12.9072 13.4557 14 13.4557C15.0929 13.4557 15.9788 14.3416 15.9788 15.4345C15.9788 16.5274 15.0929 17.4133 14 17.4133C12.9072 17.4133 12.0212 16.5274 12.0212 15.4345ZM14 11.0812C11.5957 11.0812 9.6467 13.0302 9.6467 15.4345C9.6467 17.8388 11.5957 19.7878 14 19.7878C16.4043 19.7878 18.3533 17.8388 18.3533 15.4345C18.3533 13.0302 16.4043 11.0812 14 11.0812Z" fill="white"/>
</svg>
