<svg width="12" height="16" viewBox="0 0 12 16" fill="none" xmlns="http://www.w3.org/2000/svg">
<g id="Vector">
<path d="M6.75 9.5C6.75 9.08578 6.41423 8.75 6 8.75C5.58578 8.75 5.25 9.08578 5.25 9.5V11C5.25 11.4142 5.58578 11.75 6 11.75C6.41423 11.75 6.75 11.4142 6.75 11V9.5Z" fill="#4698F0"/>
<path fill-rule="evenodd" clip-rule="evenodd" d="M2.25 5.09028C0.987075 5.39913 0 6.46984 0 7.8269V11.9808C0 13.9797 1.73659 15.5 3.75 15.5H8.25C10.2635 15.5 12 13.9797 12 11.9808V7.8269C12 6.46984 11.0129 5.39913 9.75 5.09028V4.25C9.75 2.17893 8.07105 0.5 6 0.5C3.92894 0.5 2.25 2.17893 2.25 4.25V5.09028ZM8.25 4.25V5H3.75V4.25C3.75 3.98702 3.79511 3.73459 3.87803 3.5C4.18691 2.62611 5.02035 2 6 2C6.97965 2 7.81313 2.62611 8.12198 3.5C8.20485 3.73459 8.25 3.98702 8.25 4.25ZM1.5 7.8269C1.5 7.1495 2.11392 6.5 3 6.5H9C9.88605 6.5 10.5 7.1495 10.5 7.8269V11.9808C10.5 13.0406 9.55028 14 8.25 14H3.75C2.4497 14 1.5 13.0406 1.5 11.9808V7.8269Z" fill="#4698F0"/>
</g>
</svg>
