<svg width="15" height="18" viewBox="0 0 15 18" fill="none" xmlns="http://www.w3.org/2000/svg">
<path id="Vector" d="M14.1046 5.30769L9 0.203077C8.87031 0.0732093 8.69427 0.000166154 8.51077 0H6.23077C5.55757 0 4.91186 0.267443 4.43581 0.743502C3.95975 1.21955 3.69231 1.86522 3.69231 2.53846V3.69231H2.53846C1.86521 3.69231 1.21955 3.95975 0.743501 4.43581C0.267443 4.91186 0 5.55752 0 6.23077V15.4615C0 16.1347 0.267443 16.7804 0.743501 17.2565C1.21955 17.7326 1.86521 18 2.53846 18H9C9.6732 18 10.3189 17.7326 10.7949 17.2565C11.271 16.7804 11.5385 16.1347 11.5385 15.4615V14.3077H11.7692C12.4424 14.3077 13.0881 14.0403 13.5642 13.5642C14.0403 13.0881 14.3077 12.4424 14.3077 11.7692V5.76923C14.3004 5.59532 14.2279 5.43054 14.1046 5.30769ZM9.23077 2.36308L11.9446 5.07692H9.23077V2.36308ZM10.1538 15.4615C10.1538 15.7675 10.0323 16.0611 9.8159 16.2774C9.59954 16.4938 9.306 16.6154 9 16.6154H2.53846C2.23244 16.6154 1.93896 16.4938 1.72257 16.2774C1.50618 16.0611 1.38462 15.7675 1.38462 15.4615V6.23077C1.38462 5.92475 1.50618 5.63127 1.72257 5.41488C1.93896 5.19849 2.23244 5.07692 2.53846 5.07692H3.69231V11.7692C3.69231 12.4424 3.95975 13.0881 4.43581 13.5642C4.91186 14.0403 5.55757 14.3077 6.23077 14.3077H10.1538V15.4615ZM11.7692 12.9231H6.23077C5.92477 12.9231 5.63123 12.8015 5.41486 12.5851C5.19849 12.3688 5.07692 12.0752 5.07692 11.7692V2.53846C5.07692 2.23244 5.19849 1.93896 5.41486 1.72257C5.63123 1.50618 5.92477 1.38462 6.23077 1.38462H7.84615V5.76923C7.84855 5.9521 7.92221 6.1268 8.05154 6.25613C8.18086 6.38544 8.3556 6.45915 8.53846 6.46154H12.9231V11.7692C12.9231 12.0752 12.8015 12.3688 12.5851 12.5851C12.3688 12.8015 12.0752 12.9231 11.7692 12.9231Z" fill="black" fill-opacity="0.3"/>
</svg>
