<svg width="12" height="12" viewBox="0 0 12 12" fill="none" xmlns="http://www.w3.org/2000/svg">
<path d="M3 5.4C3 5.06862 3.26863 4.8 3.6 4.8C3.93137 4.8 4.2 5.06862 4.2 5.4C4.2 5.73138 3.93137 6 3.6 6C3.26863 6 3 5.73138 3 5.4Z" fill="#4698F0"/>
<path d="M3 8.4C3 8.06862 3.26863 7.8 3.6 7.8C3.93137 7.8 4.2 8.06862 4.2 8.4C4.2 8.73138 3.93137 9 3.6 9C3.26863 9 3 8.73138 3 8.4Z" fill="#4698F0"/>
<path d="M5.4 5.4C5.4 5.06862 5.66862 4.8 6 4.8C6.33138 4.8 6.6 5.06862 6.6 5.4C6.6 5.73138 6.33138 6 6 6C5.66862 6 5.4 5.73138 5.4 5.4Z" fill="#4698F0"/>
<path d="M5.4 8.4C5.4 8.06862 5.66862 7.8 6 7.8C6.33138 7.8 6.6 8.06862 6.6 8.4C6.6 8.73138 6.33138 9 6 9C5.66862 9 5.4 8.73138 5.4 8.4Z" fill="#4698F0"/>
<path d="M7.8 5.4C7.8 5.06862 8.06862 4.8 8.4 4.8C8.73138 4.8 9 5.06862 9 5.4C9 5.73138 8.73138 6 8.4 6C8.06862 6 7.8 5.73138 7.8 5.4Z" fill="#4698F0"/>
<path d="M7.8 8.4C7.8 8.06862 8.06862 7.8 8.4 7.8C8.73138 7.8 9 8.06862 9 8.4C9 8.73138 8.73138 9 8.4 9C8.06862 9 7.8 8.73138 7.8 8.4Z" fill="#4698F0"/>
<path fill-rule="evenodd" clip-rule="evenodd" d="M3.6 0C3.93137 0 4.2 0.268632 4.2 0.6V1.2H7.8V0.6C7.8 0.268632 8.06862 0 8.4 0C8.73138 0 9 0.268632 9 0.6V1.2C10.6568 1.2 12 2.54315 12 4.2V9C12 10.6568 10.6568 12 9 12H3C1.34315 12 0 10.6568 0 9V4.2C0 2.54315 1.34315 1.2 3 1.2V0.6C3 0.268632 3.26863 0 3.6 0ZM3 2.4C2.00589 2.4 1.2 3.20589 1.2 4.2V9C1.2 9.99414 2.00589 10.8 3 10.8H9C9.99414 10.8 10.8 9.99414 10.8 9V4.2C10.8 3.20589 9.99414 2.4 9 2.4C9 2.73137 8.73138 3 8.4 3C8.06862 3 7.8 2.73137 7.8 2.4H4.2C4.2 2.73137 3.93137 3 3.6 3C3.26863 3 3 2.73137 3 2.4Z" fill="#4698F0"/>
</svg>
