<svg width="18" height="18" viewBox="0 0 18 18" fill="none" xmlns="http://www.w3.org/2000/svg">
<path id="Vector" d="M5.98165 6.04341L6.50175 5.96759L6.73424 5.49621L8.93106 1.04201C8.9311 1.04193 8.93114 1.04185 8.93118 1.04177C8.94322 1.01747 8.95293 1.01175 8.9566 1.00958L8.95669 1.00952C8.96399 1.00522 8.97806 0.999935 8.99798 1C9.01801 1.00007 9.03372 1.00555 9.04307 1.0111C9.04894 1.01459 9.05849 1.02111 9.06944 1.04302C9.06951 1.04317 9.06959 1.04332 9.06967 1.04348L11.2658 5.49621L11.4982 5.96759L12.0183 6.04341L16.9339 6.76005L16.9346 6.76015C16.9596 6.76379 16.9679 6.77081 16.9719 6.7743C16.979 6.78055 16.9888 6.79304 16.995 6.81221C17.0012 6.83137 17.0007 6.84728 16.9985 6.85668C16.9974 6.86198 16.9946 6.87293 16.976 6.89105L16.9757 6.89132L13.4195 10.3567L13.0427 10.7238L13.1318 11.2423L13.9728 16.1369C13.9728 16.1369 13.9728 16.1369 13.9728 16.137C13.9774 16.1639 13.9728 16.1739 13.9713 16.1773C13.968 16.1848 13.9598 16.1974 13.9435 16.2091C13.927 16.221 13.9109 16.2257 13.9002 16.2267C13.8936 16.2273 13.883 16.2276 13.8628 16.217L13.8626 16.2169L9.46527 13.9055L9 13.661L8.53473 13.9055L4.13735 16.2169L4.13421 16.2186C4.11433 16.2291 4.10457 16.2286 4.09896 16.2281C4.08923 16.2272 4.07364 16.2227 4.05723 16.2109C4.04093 16.1991 4.03242 16.1864 4.02892 16.1783L4.02889 16.1783C4.02711 16.1741 4.02263 16.1638 4.02713 16.1372C4.02715 16.1371 4.02716 16.137 4.02718 16.1369L4.86818 11.2423L4.95726 10.7238L4.58053 10.3567L1.02427 6.89132L1.02399 6.89104C1.00539 6.87293 1.00265 6.86198 1.00146 6.85668C0.999345 6.84728 0.998801 6.83137 1.00502 6.81221C1.01124 6.79304 1.02101 6.78055 1.0281 6.7743C1.03206 6.77081 1.04037 6.76379 1.06542 6.76016L1.06615 6.76005L5.98165 6.04341Z" fill="white" stroke="#DAE4F8" stroke-width="2"/>
</svg>
