<svg width="13" height="12" viewBox="0 0 13 12" fill="none" xmlns="http://www.w3.org/2000/svg">
<path fill-rule="evenodd" clip-rule="evenodd" d="M1.2 6C1.2 3.34903 3.34903 1.2 6 1.2C6.33138 1.2 6.6 0.931368 6.6 0.6C6.6 0.268632 6.33138 0 6 0C2.68629 0 0 2.68629 0 6C0 9.31368 2.68629 12 6 12C7.65666 12 9.1575 11.3278 10.2427 10.2427C10.477 10.0083 10.477 9.62844 10.2427 9.39414C10.0083 9.15978 9.62844 9.15978 9.39414 9.39414C8.5248 10.2634 7.32564 10.8 6 10.8C3.34903 10.8 1.2 8.65098 1.2 6ZM6.6 2.4C6.6 2.06863 6.33138 1.8 6 1.8C5.66862 1.8 5.4 2.06863 5.4 2.4V6C5.4 6.15912 5.46324 6.31176 5.57574 6.42426L7.37574 8.22426C7.61004 8.45856 7.98996 8.45856 8.22426 8.22426C8.45856 7.98996 8.45856 7.61004 8.22426 7.37574L6.6 5.75148V2.4ZM11.849 7.90044C11.721 8.2944 11.2979 8.50998 10.9039 8.382C10.51 8.25396 10.2944 7.83084 10.4224 7.43694C10.5504 7.04298 10.9735 6.8274 11.3675 6.95538C11.7614 7.08342 11.977 7.50648 11.849 7.90044ZM11.4508 5.89602C11.86 5.83122 12.1391 5.44704 12.0743 5.03796C12.0095 4.62883 11.6253 4.3497 11.2162 4.4145C10.8071 4.47929 10.528 4.86348 10.5928 5.27262C10.6576 5.6817 11.0417 5.96082 11.4508 5.89602ZM10.9754 2.38513C11.2189 2.72024 11.1446 3.18926 10.8095 3.43273C10.4744 3.6762 10.0054 3.60191 9.76194 3.26681C9.51846 2.9317 9.59274 2.46268 9.92784 2.21921C10.2629 1.97574 10.732 2.05003 10.9754 2.38513ZM9.11982 1.52906C9.30786 1.16 9.1611 0.708366 8.79204 0.520314C8.42298 0.332268 7.97136 0.47901 7.78332 0.848076C7.59528 1.21715 7.74198 1.66877 8.1111 1.85683C8.48016 2.04487 8.93178 1.89813 9.11982 1.52906Z" fill="#4698F0"/>
</svg>
