<svg width="18" height="17" viewBox="0 0 18 17" fill="none" xmlns="http://www.w3.org/2000/svg">
<path id="Vector" d="M1.91119 13.3811C2.99803 15.3077 5.16824 16 9 16C14.2946 16 16.4168 14.6782 16.892 10.6047M1.91119 13.3811C1.26281 12.2316 1 10.6431 1 8.5C1 2.76471 2.88235 1 9 1C15.1176 1 17 2.76471 17 8.5C17 9.27162 16.9659 9.97141 16.892 10.6047M1.91119 13.3811L4.84545 10.6302C5.58056 9.94106 6.7724 9.94106 7.50748 10.6302L7.66899 10.7816C8.40405 11.4707 9.59595 11.4707 10.331 10.7816L12.3749 8.86547C13.1099 8.17635 14.3018 8.17635 15.0369 8.86547L16.892 10.6047M7.768 5.71706C7.768 6.61618 6.98965 7.34588 6.03059 7.34588C5.07247 7.34588 4.29412 6.61618 4.29412 5.71706C4.29412 4.81794 5.07247 4.08824 6.03059 4.08824C6.98965 4.08824 7.768 4.81794 7.768 5.71706Z" stroke="#E5E5E5" stroke-width="2" stroke-linecap="round" stroke-linejoin="round"/>
</svg>
